<?xml version="1.0" encoding="UTF-8"?>
<svg width="331px" height="199px" viewBox="0 0 331 199" version="1.1" xmlns="http://www.w3.org/2000/svg" xmlns:xlink="http://www.w3.org/1999/xlink">
    <title>编组 3</title>
    <defs>
        <linearGradient x1="50%" y1="100%" x2="50%" y2="25.2718017%" id="linearGradient-1">
            <stop stop-color="#0C6CD8" offset="0%"></stop>
            <stop stop-color="#548FDD" stop-opacity="0" offset="100%"></stop>
        </linearGradient>
        <linearGradient x1="50%" y1="11.8044705%" x2="50%" y2="100%" id="linearGradient-2">
            <stop stop-color="#F7F7F9" stop-opacity="0.0496066434" offset="0%"></stop>
            <stop stop-color="#EBEDF0" stop-opacity="0.658790428" offset="100%"></stop>
        </linearGradient>
        <linearGradient x1="46.6747573%" y1="3.32524266%" x2="46.6747573%" y2="96.6747573%" id="linearGradient-3">
            <stop stop-color="#066DFF" offset="0%"></stop>
            <stop stop-color="#A13BFF" offset="99.9207823%"></stop>
        </linearGradient>
        <linearGradient x1="46.6747573%" y1="3.32524266%" x2="46.6747573%" y2="96.6747573%" id="linearGradient-4">
            <stop stop-color="#6BD5FF" offset="0.0792176573%"></stop>
            <stop stop-color="#1789E4" offset="64.4011889%"></stop>
            <stop stop-color="#004ECC" offset="100%"></stop>
        </linearGradient>
        <path d="M151.77941,24.0685909 C201.47334,25.4982463 241,49.097394 241,78 C241,107.823377 198.914767,132 147,132 C146.873803,132 146.747663,132 146.621583,132 L129.485342,99.8361261 C128.784883,98.521508 129.099308,97.0974499 130.348918,95.9249247 L130.348918,95.9249247 L168.196555,60.4119909 C169.446183,59.2394487 169.760599,57.8153676 169.060103,56.5007354 L169.060103,56.5007354 L151.77941,24.0685909 Z M147,24 C147.12483,24 147.249603,24 147.374319,24 L164.512716,56.1700197 C165.213087,57.484554 164.898711,58.9085074 163.649268,60.0809797 L163.649268,60.0809797 L125.803215,95.5955615 C124.553728,96.7680757 124.239376,98.1920867 124.939839,99.5066561 L124.939839,99.5066561 L142.216489,131.931291 C92.5244858,130.500455 53,106.901811 53,78 C53,48.1766235 95.0852335,24 147,24 Z" id="path-5"></path>
        <filter x="-4.3%" y="-3.7%" width="108.5%" height="114.8%" filterUnits="objectBoundingBox" id="filter-6">
            <feOffset dx="0" dy="4" in="SourceAlpha" result="shadowOffsetOuter1"></feOffset>
            <feGaussianBlur stdDeviation="2" in="shadowOffsetOuter1" result="shadowBlurOuter1"></feGaussianBlur>
            <feColorMatrix values="0 0 0 0 0.00909179561   0 0 0 0 0.00202139797   0 0 0 0 0.406448143  0 0 0 0.5 0" type="matrix" in="shadowBlurOuter1"></feColorMatrix>
        </filter>
        <linearGradient x1="46.6747573%" y1="96.6747573%" x2="46.6747573%" y2="3.32524266%" id="linearGradient-7">
            <stop stop-color="#6BD5FF" offset="0.0792176573%"></stop>
            <stop stop-color="#1789E4" offset="64.4011889%"></stop>
            <stop stop-color="#004ECC" offset="100%"></stop>
        </linearGradient>
        <linearGradient x1="46.6747573%" y1="96.6747573%" x2="46.6747573%" y2="3.32524266%" id="linearGradient-8">
            <stop stop-color="#6BD5FF" offset="0.0792176573%"></stop>
            <stop stop-color="#1789E4" offset="64.4011889%"></stop>
            <stop stop-color="#004ECC" offset="100%"></stop>
        </linearGradient>
        <linearGradient x1="46.6747573%" y1="3.32524266%" x2="46.6747573%" y2="96.6747573%" id="linearGradient-9">
            <stop stop-color="#066DFF" offset="0%"></stop>
            <stop stop-color="#A13BFF" offset="99.9207823%"></stop>
        </linearGradient>
        <ellipse id="path-10" cx="77.5" cy="41.5" rx="77.5" ry="41.5"></ellipse>
        <filter x="-3.9%" y="-7.2%" width="107.7%" height="114.5%" filterUnits="objectBoundingBox" id="filter-11">
            <feGaussianBlur stdDeviation="4" in="SourceAlpha" result="shadowBlurInner1"></feGaussianBlur>
            <feOffset dx="0" dy="4" in="shadowBlurInner1" result="shadowOffsetInner1"></feOffset>
            <feComposite in="shadowOffsetInner1" in2="SourceAlpha" operator="arithmetic" k2="-1" k3="1" result="shadowInnerInner1"></feComposite>
            <feColorMatrix values="0 0 0 0 0.0052739669   0 0 0 0 0.000882349051   0 0 0 0 0.364611639  0 0 0 0.5 0" type="matrix" in="shadowInnerInner1"></feColorMatrix>
        </filter>
        <linearGradient x1="50%" y1="100%" x2="50%" y2="-2.48949813e-15%" id="linearGradient-12">
            <stop stop-color="#8A6EFB" offset="0%"></stop>
            <stop stop-color="#7688F0" offset="100%"></stop>
        </linearGradient>
    </defs>
    <g id="页面-1" stroke="none" stroke-width="1" fill="none" fill-rule="evenodd">
        <g id="大数据中心" transform="translate(-795.000000, -328.000000)">
            <g id="编组" transform="translate(486.000000, 105.000000)">
                <g id="编组-3" transform="translate(309.087629, 223.000000)">
                    <path d="M165,15 C256.126984,15 330,56.189803 330,107 C330,157.810197 256.126984,199 165,199 C73.8730163,199 0,157.810197 0,107 C0,56.189803 73.8730163,15 165,15 Z M165,33 C82.4922315,33 18,68.9593048 18,107 C18,145.040695 82.4922315,181 165,181 C247.507769,181 312,145.040695 312,107 C312,68.9593048 247.507769,33 165,33 Z" id="椭圆形" fill="url(#linearGradient-1)" fill-rule="nonzero"></path>
                    <g id="小程序互通" transform="translate(19.000000, 0.000000)">
                        <rect id="矩形" x="0" y="0" width="293" height="167"></rect>
                        <g id="编组-90" transform="translate(20.000000, 16.000000)" fill-rule="nonzero">
                            <path d="M130.738032,6.66398229 C131.315232,6.67482916 131.76784,6.95243669 131.748959,7.28403604 C131.730078,7.6156354 131.246859,7.87565667 130.669659,7.86480979 C129.291476,7.83891067 127.910262,7.82593451 126.526368,7.82593451 C125.948859,7.82593451 125.480696,7.55697634 125.480696,7.22519963 C125.480696,6.89342291 125.948859,6.62446474 126.526368,6.62446474 C127.933059,6.62446474 129.337067,6.63765504 130.738032,6.66398229 Z M143.345099,7.26109508 C143.91758,7.30478115 144.320023,7.60681211 144.24398,7.93570011 C144.167938,8.26458811 143.642206,8.49578996 143.069725,8.45210388 C141.700935,8.34765135 140.327569,8.25616869 138.95002,8.1777297 C138.375327,8.14500612 137.955622,7.85083167 138.012583,7.52067268 C138.069543,7.1905137 138.5816,6.94939466 139.156293,6.98211825 C140.556925,7.0618716 141.953327,7.1548888 143.345099,7.26109508 Z M155.789786,8.57850367 C156.351756,8.65495006 156.69945,8.97864326 156.566383,9.30149267 C156.433316,9.62434208 155.869878,9.82409118 155.307908,9.74764479 C153.963141,9.5647121 152.612118,9.3946136 151.255268,9.23744738 C150.689152,9.17187312 150.322754,8.85506211 150.436896,8.52983018 C150.551038,8.20459826 151.102497,7.99410413 151.668614,8.05967839 C153.0484,8.2195013 154.42227,8.39247636 155.789786,8.57850367 Z M167.947593,10.6091746 C168.493305,10.7177452 168.782491,11.0599087 168.593507,11.3734183 C168.404523,11.6869278 167.808934,11.8530636 167.263222,11.744493 C165.95626,11.4844701 164.641259,11.2369779 163.318676,11.0021421 C162.766919,10.9041729 162.457874,10.5677882 162.628405,10.2508058 C162.798935,9.93382341 163.384465,9.75627815 163.936223,9.85424737 C165.281212,10.0930617 166.618491,10.3447468 167.947593,10.6091746 Z M179.65695,13.3245516 C180.180949,13.464028 180.408921,13.8211332 180.16614,14.1221682 C179.92336,14.4232033 179.301763,14.5541725 178.777765,14.4146961 C177.524532,14.0811139 176.261462,13.7595477 174.98903,13.4501514 C174.457196,13.320834 174.208536,12.9683149 174.433633,12.662778 C174.65873,12.3572411 175.272344,12.214387 175.804179,12.3437044 C177.098123,12.6583316 178.382541,12.985333 179.65695,13.3245516 Z M190.865414,16.7106755 C191.362436,16.8796262 191.526949,17.2480613 191.232864,17.5335985 C190.938779,17.8191356 190.297461,17.9136477 189.800439,17.744697 C188.610117,17.3400756 187.408087,16.9468766 186.194833,16.5652841 C185.68827,16.4059602 185.502439,16.0408856 185.779767,15.7498673 C186.057096,15.458849 186.692564,15.3520896 187.199127,15.5114136 C188.432808,15.8994305 189.655067,16.299247 190.865414,16.7106755 Z M201.420027,20.7204793 C201.885242,20.9170648 201.984974,21.293089 201.642787,21.5603528 C201.300599,21.8276165 200.646071,21.8849126 200.180856,21.6883271 C199.067191,21.2177258 197.940013,20.7577875 196.799798,20.3087243 C196.323471,20.1211274 196.202046,19.7472146 196.528588,19.4735667 C196.855129,19.1999187 197.505983,19.1301605 197.982309,19.3177574 C199.141638,19.7743483 200.287706,20.2419942 201.420027,20.7204793 Z M211.228575,25.3146432 C211.657466,25.5368248 211.691635,25.9166822 211.304894,26.1630786 C210.918152,26.4094748 210.256951,26.4291048 209.82806,26.2069231 C208.80191,25.6753389 207.760512,25.1535532 206.704324,24.6418025 C206.262861,24.4279021 206.206815,24.0489032 206.579142,23.7952844 C206.951469,23.5416656 207.611175,23.5094674 208.052638,23.7233677 C209.126479,24.2436717 210.185279,24.7741769 211.228575,25.3146432 Z M220.178195,30.4356634 C220.566648,30.6811698 220.535121,31.0611028 220.107779,31.2842672 C219.680437,31.5074317 219.019105,31.4893202 218.630653,31.2438137 C217.699989,30.6556239 216.752391,30.0763224 215.788284,29.5061666 C215.385881,29.2681921 215.395469,28.8878676 215.809701,28.6566883 C216.223933,28.4255089 216.885947,28.4310175 217.28835,28.6689922 C218.268559,29.2486708 219.231985,29.8376483 220.178195,30.4356634 Z M228.210314,36.0491832 C228.554386,36.3156472 228.45731,36.6919007 227.993488,36.889569 C227.529666,37.0872374 226.874739,37.0314676 226.530666,36.7650037 C225.707154,36.1272415 224.865235,35.4973518 224.005297,34.8756045 C223.646025,34.6158457 223.721318,34.2379489 224.173468,34.0315485 C224.625619,33.8251479 225.283407,33.8684034 225.642679,34.1281622 C226.517006,34.7603126 227.373015,35.4007443 228.210314,36.0491832 Z M235.234223,42.0977355 C235.53032,42.3825856 235.368408,42.7514008 234.872582,42.9215073 C234.376756,43.0916139 233.734776,42.9985958 233.438679,42.7137457 C232.730051,42.0320333 232.001693,41.3571534 231.253944,40.6893824 C230.941499,40.4103554 231.081941,40.0386471 231.567631,39.8591483 C232.05332,39.6796497 232.700337,39.7603333 233.012782,40.0393601 C233.773089,40.7183466 234.513685,41.4045652 235.234223,42.0977355 Z M241.168522,48.5167011 C241.413485,48.8171521 241.188106,49.1748001 240.665124,49.3155303 C240.142143,49.4562605 239.519601,49.3267812 239.274638,49.0263302 C238.688291,48.3071668 238.081097,47.5937819 237.453342,46.8864508 C237.19102,46.5908761 237.395446,46.2290966 237.909939,46.0783936 C238.424433,45.9276907 239.054167,46.0451324 239.316489,46.3407071 C239.954834,47.0599715 240.572276,47.785396 241.168522,48.5167011 Z M245.952033,55.2455804 C246.14319,55.5586547 245.856381,55.9014776 245.311426,56.0112969 C244.766472,56.1211161 244.169735,55.9563453 243.978578,55.643271 C243.520837,54.8935911 243.041365,54.1486435 242.540399,53.408695 C242.331055,53.099484 242.597669,52.7513226 243.135899,52.631055 C243.674128,52.5107872 244.280157,52.6639561 244.489502,52.973167 C244.998949,53.7256426 245.48654,54.4832046 245.952033,55.2455804 Z M249.535015,62.2217104 C249.670322,62.5442525 249.324876,62.8687395 248.763441,62.9464724 C248.202007,63.0242055 247.637187,62.8257484 247.501881,62.5032063 C247.177797,61.7306577 246.831378,60.9618208 246.462813,60.1969483 C246.308736,59.8771975 246.635026,59.5462313 247.191603,59.4577149 C247.748178,59.3691983 248.324277,59.5566508 248.478353,59.8764016 C248.853161,60.6542278 249.205445,61.4360833 249.535015,62.2217104 Z M251.878674,69.3702261 C251.956948,69.6989412 251.556558,70.0018716 250.984378,70.0468397 C250.412199,70.0918078 249.884901,69.8617856 249.806627,69.5330703 C249.619023,68.7452202 249.408755,67.9601158 249.175966,67.1779907 C249.07863,66.8509605 249.46119,66.5405186 250.030437,66.4845995 C250.599684,66.4286803 251.140057,66.6484593 251.237393,66.9754895 C251.474104,67.7707943 251.687913,68.5691196 251.878674,69.3702261 Z M252.966589,76.6060783 C252.987723,76.9376327 252.537006,77.2162534 251.959884,77.2283949 C251.382761,77.2405365 250.897779,76.981601 250.876645,76.6500466 C250.825958,75.8548649 250.752573,75.0615366 250.656596,74.2702729 C250.61645,73.9392988 251.050937,73.6522945 251.627049,73.629231 C252.20316,73.6061674 252.702736,73.8557781 252.742882,74.1867522 C252.840456,74.9911858 252.915061,75.7977 252.966589,76.6060783 Z M252.809431,83.8579865 C252.773869,84.1891336 252.277765,84.4410192 251.701352,84.4205887 C251.124939,84.4001585 250.686493,84.1151486 250.722055,83.7840016 C250.806952,82.9934619 250.869327,82.2009331 250.909078,81.4066236 C250.925675,81.0749841 251.4071,80.8138665 251.98437,80.8234012 C252.561641,80.832936 253.016156,81.1095125 252.99956,81.4411522 C252.95915,82.2486244 252.895739,83.0543071 252.809431,83.8579865 Z M251.403818,91.078311 C251.311048,91.405779 250.773759,91.6280392 250.20375,91.5747432 C249.633741,91.521447 249.246862,91.2127767 249.339633,90.8853086 C249.561502,90.1021377 249.760832,89.3160632 249.937484,88.5273169 C250.011183,88.1982529 250.535263,87.9658171 251.108051,88.0081569 C251.680838,88.0504966 252.085429,88.3515789 252.01173,88.6806429 C251.832108,89.48265 251.629423,90.2819519 251.403818,91.078311 Z M248.745829,98.1864109 C248.596266,98.5068684 248.022831,98.6969964 247.465025,98.6110737 C246.907219,98.525151 246.576271,98.1957147 246.725833,97.8752571 C247.083758,97.1083515 247.419476,96.337559 247.7328,95.5631314 C247.863548,95.2399694 248.425547,95.0388868 248.988061,95.1140008 C249.550574,95.1891148 249.90059,95.5119814 249.769842,95.8351433 C249.451215,96.6226779 249.109814,97.4065194 248.745829,98.1864109 Z M244.854998,105.107204 C244.650025,105.41738 244.046179,105.573367 243.506268,105.455611 C242.966359,105.337855 242.694838,104.990947 242.899811,104.680771 C243.390353,103.938455 243.859334,103.191223 244.306519,102.439341 C244.493246,102.125386 245.087635,101.957837 245.634123,102.065111 C246.180612,102.172385 246.472256,102.513859 246.285529,102.827815 C245.830769,103.592431 245.353846,104.352318 244.854998,105.107204 Z M239.780624,111.757772 C239.522515,112.054568 238.894472,112.174962 238.377852,112.026679 C237.861233,111.878396 237.651669,111.517588 237.909778,111.220792 C238.528298,110.509566 239.126116,109.792356 239.702947,109.069438 C239.943598,108.767839 240.564265,108.635422 241.089244,108.773675 C241.614224,108.911929 241.844717,109.268499 241.604065,109.570098 C241.017493,110.305225 240.409583,111.034543 239.780624,111.757772 Z M233.56631,118.088643 C233.257824,118.36912 232.611971,118.452823 232.123757,118.275599 C231.635543,118.098375 231.489845,117.727335 231.798331,117.446858 C232.536563,116.775654 233.255303,116.097427 233.954216,115.412453 C234.246267,115.126228 234.886908,115.03021 235.385127,115.197992 C235.883347,115.365774 236.050481,115.73382 235.75843,116.020046 C235.047766,116.716536 234.316945,117.406162 233.56631,118.088643 Z M226.280247,124.033784 C225.924652,124.295207 225.267495,124.341524 224.812448,124.137235 C224.3574,123.932947 224.276779,123.555413 224.632374,123.29399 C225.484305,122.667677 226.318063,122.033289 227.133266,121.391097 C227.473549,121.123032 228.127665,121.0642 228.594273,121.259691 C229.060882,121.455183 229.163289,121.83097 228.823005,122.099035 C227.994152,122.75198 227.146436,123.396988 226.280247,124.033784 Z M218.000826,129.53302 C217.601776,129.772851 216.939861,129.781427 216.522398,129.552175 C216.104934,129.322922 216.090006,128.942655 216.489056,128.702823 C217.443959,128.128921 218.382264,127.545972 219.303548,126.954236 C219.688558,126.706946 220.349616,126.685785 220.780062,126.906972 C221.210508,127.128159 221.247342,127.507934 220.862332,127.755224 C219.925657,128.356845 218.971678,128.949531 218.000826,129.53302 Z M208.832511,134.52244 C208.394059,134.738374 207.733923,134.709226 207.358055,134.457337 C206.982188,134.205448 207.032924,133.826202 207.471376,133.610268 C208.521656,133.093014 209.556969,132.565771 210.576858,132.028779 C211.002609,131.804613 211.664065,131.821172 212.054261,132.065764 C212.444457,132.310356 212.415634,132.69036 211.989883,132.914526 C210.952954,133.460489 209.900342,133.996541 208.832511,134.52244 Z M198.824276,138.974536 C198.3506,139.164336 197.698788,139.097598 197.368412,138.825473 C197.038037,138.553348 197.154205,138.178884 197.627881,137.989085 C198.76236,137.534505 199.883642,137.069101 200.991252,136.593089 C201.453687,136.39435 202.109,136.448607 202.454934,136.714273 C202.800869,136.97994 202.706428,137.356415 202.243994,137.555153 C201.117834,138.039138 199.977767,138.512338 198.824276,138.974536 Z M188.106444,142.827202 C187.602175,142.988909 186.965202,142.885151 186.683725,142.59545 C186.402247,142.30575 186.582855,141.939811 187.087124,141.778103 C188.294082,141.391059 189.489679,140.992478 190.673434,140.582546 C191.168035,140.411267 191.810677,140.502764 192.108815,140.78691 C192.406953,141.071057 192.247689,141.440252 191.753088,141.611532 C190.549425,142.028357 189.333714,142.433644 188.106444,142.827202 Z M176.753909,146.04949 C176.223942,146.181313 175.608306,146.041359 175.378847,145.736895 C175.149389,145.43243 175.393001,145.07875 175.922968,144.946927 C177.192263,144.631206 178.452025,144.303332 179.701779,143.963462 C180.223759,143.82151 180.847214,143.949533 181.094303,144.249408 C181.341393,144.549284 181.11855,144.907456 180.59657,145.049408 C179.325706,145.395019 178.044657,145.728433 176.753909,146.04949 Z M164.900698,148.598827 C164.350332,148.699345 163.762332,148.524514 163.587364,148.208331 C163.412397,147.892147 163.716717,147.554344 164.267083,147.453826 C165.585181,147.21309 166.895569,146.959749 168.197786,146.69393 C168.741964,146.582848 169.339854,146.746234 169.533209,147.058863 C169.726564,147.371491 169.442166,147.714977 168.897987,147.826058 C167.573712,148.096379 166.241126,148.354012 164.900698,148.598827 Z M152.663229,150.449484 C152.098052,150.517681 151.543654,150.30975 151.424947,149.985058 C151.30624,149.660366 151.668176,149.341867 152.233354,149.27367 C153.587401,149.110285 154.93549,148.933994 156.277188,148.744898 C156.838066,148.665849 157.404292,148.86298 157.541888,149.185202 C157.679485,149.507424 157.336349,149.832719 156.775471,149.911768 C155.411068,150.104064 154.040174,150.283337 152.663229,150.449484 Z M140.163522,151.58497 C139.589302,151.620326 139.073915,151.38156 139.012373,151.051673 C138.950831,150.721785 139.366439,150.425697 139.940659,150.390342 C141.317313,150.305579 142.689655,150.207771 144.05729,150.096993 C144.629143,150.050672 145.158083,150.279447 145.23871,150.607974 C145.319337,150.936501 144.92112,151.240375 144.349267,151.286695 C142.95865,151.399335 141.563267,151.498786 140.163522,151.58497 Z M127.549264,151.999981 C126.971773,152.002608 126.499917,151.735789 126.495277,151.404022 C126.49077,151.072256 126.955211,150.801176 127.532702,150.798549 C128.91805,150.792246 130.300597,150.772927 131.679987,150.740649 C132.257018,150.727146 132.743847,150.984935 132.767351,151.316437 C132.790855,151.647938 132.342133,151.92762 131.765102,151.941123 C130.362874,151.973936 128.957473,151.993574 127.549264,151.999981 Z M114.918315,151.700446 C114.343181,151.67039 113.919354,151.378173 113.971671,151.04776 C114.023989,150.717348 114.532639,150.473861 115.107773,150.503917 C116.483614,150.575818 117.863381,150.634719 119.246695,150.680558 C119.823246,150.699663 120.263674,150.983662 120.230419,151.314888 C120.197164,151.646114 119.702819,151.899139 119.126268,151.880034 C117.719912,151.833432 116.317132,151.773548 114.918315,151.700446 Z M102.402748,150.682573 C101.83571,150.619683 101.464777,150.304619 101.574246,149.978857 C101.683715,149.653096 102.232134,149.439996 102.799173,149.502886 C104.154571,149.653212 105.515504,149.790647 106.881559,149.915103 C107.45194,149.967068 107.840998,150.274832 107.750545,150.602514 C107.660091,150.930196 107.124379,151.153709 106.553998,151.101744 C105.164914,150.97519 103.781024,150.835437 102.402748,150.682573 Z M90.1212934,148.948289 C89.5681287,148.852976 89.2541953,148.518088 89.4201035,148.200297 C89.5860117,147.882506 90.1689353,147.702153 90.7220999,147.797466 C92.0448966,148.025392 93.3749635,148.240671 94.7118548,148.443188 C95.270277,148.52778 95.6036015,148.856425 95.456356,149.177236 C95.3091104,149.498048 94.7370536,149.689541 94.1786314,149.604949 C92.8190971,149.399002 91.4664995,149.180076 90.1212934,148.948289 Z M78.1845903,146.508113 C77.6509567,146.381265 77.3973531,146.029911 77.6181509,145.72334 C77.838949,145.416769 78.4505366,145.271075 78.9841702,145.397923 C80.2618872,145.701643 81.548704,145.993102 82.8441505,146.272159 C83.3848959,146.388643 83.658889,146.734908 83.4561307,147.045565 C83.2533725,147.356221 82.6506435,147.513629 82.1098981,147.397145 C80.7925223,147.113365 79.483927,146.816972 78.1845903,146.508113 Z M66.7661301,143.399569 C66.2573042,143.242643 66.066254,142.878459 66.3394076,142.586141 C66.6125612,142.293822 67.2464806,142.184065 67.7553066,142.34099 C68.9728746,142.716497 70.2013668,143.080326 71.4403037,143.432304 C71.9579742,143.579372 72.1701037,143.939685 71.914108,144.237085 C71.6581124,144.534484 71.0309321,144.656352 70.5132613,144.509283 C69.2534267,144.151368 68.0042202,143.781405 66.7661301,143.399569 Z M55.9375645,139.64751 C55.4585541,139.462182 55.3317516,139.088859 55.6543434,138.813669 C55.9769352,138.538479 56.6267624,138.465631 57.1057728,138.650959 C58.2516821,139.094308 59.4103373,139.526683 60.5812597,139.947885 C61.0707344,140.123957 61.2190794,140.494651 60.9125977,140.775853 C60.606116,141.057054 59.9608656,141.142278 59.471391,140.966205 C58.2808063,140.537931 57.1027021,140.098298 55.9375645,139.64751 Z M45.8005178,135.288011 C45.3560151,135.076199 45.2945588,134.697477 45.663251,134.442112 C46.0319435,134.186747 46.6911681,134.15144 47.1356707,134.363253 C48.199351,134.870113 49.2775673,135.366805 50.3698541,135.853104 C50.8263351,136.056334 50.9096114,136.433678 50.5558572,136.695924 C50.2021031,136.958171 49.5452783,137.006012 49.0887973,136.802782 C47.9782364,136.308348 46.8819858,135.803347 45.8005178,135.288011 Z M36.479773,130.377462 C36.0740557,130.141352 36.0783272,129.760995 36.4893138,129.527912 C36.9003004,129.294829 37.56237,129.297283 37.9680873,129.533393 C38.9397975,130.098888 39.9277638,130.655102 40.9315457,131.201787 C41.3506567,131.430045 41.3683223,131.810274 40.9710031,132.051052 C40.5736838,132.29183 39.9118364,132.301978 39.4927255,132.07372 C38.4721786,131.517904 37.4677118,130.9524 36.479773,130.377462 Z M28.0604809,124.964945 C27.6975211,124.706884 27.7674292,124.328646 28.216625,124.120127 C28.6658207,123.911608 29.3242028,123.951769 29.6871625,124.209831 C30.5561119,124.827646 31.4428707,125.437164 32.3470355,126.038119 C32.7246873,126.289125 32.6766437,126.668487 32.2397274,126.885446 C31.8028109,127.102406 31.1424732,127.074805 30.7648217,126.823798 C29.8455437,126.212799 28.94396,125.593091 28.0604809,124.964945 Z M20.6064361,119.088767 C20.2900123,118.811223 20.4251359,118.438865 20.9082431,118.257081 C21.3913503,118.075296 22.0394982,118.152924 22.355922,118.430467 C23.1138512,119.095266 23.891016,119.752785 24.6870567,120.402749 C25.0193803,120.67409 24.9058982,121.048825 24.4335872,121.239744 C23.9612763,121.430662 23.3089912,121.365467 22.9766675,121.094126 C22.1672804,120.433265 21.3770813,119.764719 20.6064361,119.088767 Z M14.2096617,112.81413 C13.9431308,112.5198 14.1423871,112.15707 14.6547131,112.003949 C15.167039,111.850828 15.7984272,111.9653 16.0649581,112.25963 C16.7028485,112.96405 17.3611486,113.662255 18.0395492,114.353968 C18.3230387,114.64302 18.1449764,115.00937 17.6418359,115.172234 C17.1386954,115.335098 16.5010059,115.232802 16.2175164,114.943749 C15.5276919,114.240388 14.858302,113.530422 14.2096617,112.81413 Z M8.94214164,106.20652 C8.72837374,105.89831 8.9899905,105.548899 9.52647899,105.426091 C10.0629675,105.303282 10.6711704,105.453579 10.8849383,105.76179 C11.3968856,106.499916 11.9302421,107.232875 12.4847494,107.960394 C12.7163922,108.264312 12.4753233,108.618567 11.946307,108.751645 C11.4172907,108.884723 10.8006547,108.74623 10.569012,108.442312 C10.0051282,107.70249 9.4627504,106.957134 8.94214164,106.20652 Z M4.85611492,99.3257573 C4.69743119,99.0067509 5.01893616,98.6742427 5.57421635,98.5830796 C6.12949652,98.4919164 6.70827859,98.6766198 6.86696232,98.9956263 C7.24703192,99.7596909 7.64922418,100.519625 8.07333139,101.275168 C8.25057839,101.590932 7.94869718,101.929457 7.39906086,102.031285 C6.84942454,102.133112 6.26016916,101.959683 6.08292216,101.643919 C5.65162969,100.875575 5.2426234,100.102766 4.85611492,99.3257573 Z M1.99435034,92.2381711 C1.89233474,91.9116119 2.270436,91.5993726 2.83886313,91.540765 C3.40729027,91.4821574 3.95079149,91.6993751 4.05280709,92.0259343 C4.29731638,92.8086262 4.56440184,93.5881772 4.85390215,94.3643454 C4.97490367,94.6887578 4.61522277,95.0080991 4.05053239,95.077614 C3.485842,95.1471289 2.92997889,94.9404937 2.80897738,94.6160811 C2.51458463,93.8267961 2.24298759,93.0340769 1.99435034,92.2381711 Z M0.384526055,85.0221778 C0.33979003,84.6913982 0.770281071,84.4024136 1.34605471,84.3767129 C1.92182835,84.3510123 2.42485082,84.5983277 2.46958684,84.9291076 C2.5768596,85.7222861 2.70685568,86.5132517 2.85945473,87.3017833 C2.923268,87.6315284 2.50970221,87.9285587 1.93572968,87.9652193 C1.36175716,88.0018798 0.844729617,87.7642878 0.780916348,87.4345428 C0.625761817,86.6328061 0.493591128,85.8286089 0.384526055,85.0221778 Z M0.0276914041,77.7774249 C0.0396620445,77.4457194 0.517429089,77.182394 1.09481397,77.1892711 C1.67219884,77.1961482 2.13055765,77.4706235 2.11858701,77.8023289 C2.10043335,78.3053654 2.09134493,78.809068 2.09134493,79.3133859 C2.09134493,79.6036087 2.09435477,79.8936289 2.10037009,80.1834368 C2.10725604,80.5151899 1.64470798,80.7873359 1.06724008,80.7912918 C0.489772176,80.7952478 0.0160597832,80.5295157 0.00917383301,80.1977626 C0.00305939754,79.9031796 0,79.6083842 0,79.3133859 C0,78.8007657 0.0092382113,78.2887613 0.0276914041,77.7774249 Z M0.913807067,70.5329036 C0.982848547,70.2035062 1.50362362,69.9686311 2.07699075,70.0082952 C2.65035789,70.0479593 3.05919461,70.3471427 2.99015312,70.6765399 C2.8252447,71.4633188 2.68287946,72.2526091 2.56318078,73.0441883 C2.5131994,73.3747202 2.00627462,73.6193918 1.43093259,73.5906777 C0.855590555,73.5619635 0.429701593,73.2707372 0.479682969,72.9402053 C0.601384164,72.1353833 0.746133834,71.3328734 0.913807067,70.5329036 Z M3.05547734,63.3642723 C3.18164592,63.0405102 3.74078012,62.8368084 4.30433853,62.9092918 C4.86789693,62.9817752 5.22247145,63.3029956 5.09630286,63.6267579 C4.79434707,64.401609 4.51478611,65.1799346 4.25778548,65.9614905 C4.15058283,66.2875008 3.60365115,66.5018581 3.03617941,66.4402705 C2.46870766,66.378683 2.09558585,66.0644728 2.20278852,65.7384624 C2.46413047,64.9437043 2.74841619,64.1522243 3.05547734,63.3642723 Z M6.43438147,56.3662407 C6.61656606,56.0514056 7.20851345,55.8810286 7.75653293,55.985693 C8.30455242,56.0903573 8.60112019,56.4304289 8.41893561,56.745264 C7.98298758,57.4986304 7.56889833,58.2564798 7.17688002,59.0185511 C7.01320794,59.3367246 6.4315573,59.5184296 5.87772696,59.4244005 C5.32389662,59.3303717 5.00761087,58.9962154 5.17128295,58.6780421 C5.56994285,57.9030596 5.99104774,57.1323705 6.43438147,56.3662407 Z M11.0240556,49.5946161 C11.2604108,49.291898 11.8791738,49.1565723 12.4061016,49.2923574 C12.9330293,49.4281425 13.1685849,49.7836195 12.9322297,50.0863376 C12.3666177,50.8107598 11.8220612,51.5407113 11.2988229,52.2759197 C11.080264,52.5830192 10.469745,52.7301851 9.93519033,52.6046238 C9.40063574,52.4790626 9.14447055,52.1283218 9.3630294,51.8212221 C9.89511778,51.0735784 10.4488823,50.3312842 11.0240556,49.5946161 Z M16.7743529,43.121126 C17.0623126,42.8335358 17.7015628,42.7345069 18.2021583,42.8999386 C18.7027537,43.0653703 18.875129,43.4326173 18.5871694,43.7202075 C17.8972077,44.4092836 17.2272933,45.1049624 16.5777409,45.8069662 C16.3066716,46.0999245 15.673539,46.2111712 15.1635998,46.0554429 C14.6536606,45.8997145 14.4600182,45.5359823 14.7310876,45.2430242 C15.391582,44.5291948 16.0727773,43.8218012 16.7743529,43.121126 Z M23.6226217,37.0101224 C23.9590849,36.7404706 24.6123425,36.6785726 25.0817136,36.8718694 C25.5510845,37.0651661 25.6588277,37.4404602 25.3223645,37.7101121 C24.5162018,38.3561955 23.7288037,39.0099291 22.9605345,39.6710379 C22.6398741,39.9469718 21.9905628,40.0213219 21.5102572,39.8371036 C21.0299515,39.6528855 20.9005335,39.2798586 21.2211939,39.0039248 C22.0023481,38.3317283 22.8029475,37.6670344 23.6226217,37.0101224 Z M31.4999955,31.3186586 C31.8814732,31.0695687 32.5422079,31.0453039 32.9757873,31.2644615 C33.4093669,31.483619 33.4516037,31.8632086 33.0701257,32.1122985 C32.1571521,32.7084338 31.2614345,33.3132131 30.3833806,33.9263725 C30.0164777,34.1825867 29.3575052,34.2194148 28.9115245,34.0086305 C28.4655438,33.7978461 28.4014386,33.4192689 28.7683416,33.1630547 C29.6610747,32.5396447 30.5717638,31.9247568 31.4999955,31.3186586 Z M40.3022989,26.1159751 C40.7248615,25.8898267 41.3865294,25.9032934 41.7801762,26.1460539 C42.1738227,26.3888143 42.1503818,26.7689402 41.7278192,26.9950886 C40.7160032,27.536596 39.7198484,28.0877092 38.7397985,28.6481806 C38.3305071,28.8822461 37.6684258,28.8813782 37.260998,28.646242 C36.8535705,28.4111057 36.8550813,28.0307425 37.2643724,27.7966767 C38.2607907,27.2268447 39.2735829,26.6665271 40.3022989,26.1159751 Z M49.975709,21.4327032 C50.4352856,21.2317889 51.0913524,21.2829503 51.4410748,21.5469753 C51.7907976,21.8110004 51.7017431,22.1879082 51.2421665,22.3888225 C50.1419852,22.8697917 49.0557304,23.3612379 47.9838705,23.8629362 C47.5361483,24.0724986 46.8774886,24.0338687 46.5127127,23.7766539 C46.1479369,23.5194392 46.215178,23.1410416 46.6629002,22.9314793 C47.7526887,22.4213893 48.8571166,21.9217211 49.975709,21.4327032 Z M60.4154136,17.3242888 C60.9075591,17.1506908 61.5514828,17.2391644 61.853657,17.5219002 C62.1558315,17.8046359 62.0018293,18.1745676 61.5096838,18.3481656 C60.3309132,18.7639618 59.1642801,19.1910232 58.0102656,19.6291512 C57.5284593,19.8120716 56.8797631,19.7359705 56.5613617,19.4591747 C56.2429603,19.1823789 56.3754259,18.8097053 56.8572322,18.6267849 C58.0306181,18.1813024 59.2168414,17.7470697 60.4154136,17.3242888 Z M71.5152935,13.8359781 C72.0352097,13.6915478 72.6604877,13.8166001 72.911891,14.11529 C73.1632945,14.41398 72.9456217,14.7731999 72.4257052,14.9176301 C71.1811243,15.2633687 69.9468301,15.6210151 68.7233021,15.9904004 C68.2120838,16.1447381 67.5798763,16.0317683 67.3112272,15.7380752 C67.0425785,15.4443821 67.2392201,15.0811813 67.7504384,14.9268435 C68.9945971,14.5512298 70.2497114,14.1875506 71.5152935,13.8359781 Z M83.1801611,11.0022581 C83.7227265,10.8886015 84.3229413,11.0491487 84.5207783,11.3608504 C84.7186154,11.6725521 84.439158,12.0173732 83.8965926,12.1310298 C82.5969611,12.403277 81.3057925,12.6879641 80.0235555,12.9849515 C79.4879385,13.1090093 78.8786795,12.9601298 78.6627376,12.6524198 C78.4467957,12.3447098 78.7059435,11.9946928 79.2415607,11.870635 C80.5454992,11.5686212 81.8585247,11.2791148 83.1801611,11.0022581 Z M95.2741087,8.85890384 C95.833835,8.7772056 96.4028653,8.97165243 96.545074,9.29321297 C96.6872824,9.61477352 96.3488174,9.94167936 95.7890914,10.0233776 C94.4479916,10.219126 93.1135706,10.4276814 91.786272,10.6489327 C91.2316388,10.7413861 90.6515602,10.5580299 90.4906306,10.2393951 C90.3297009,9.92076025 90.648861,9.58750737 91.2034945,9.49505391 C92.553276,9.27005488 93.9102985,9.05796706 95.2741087,8.85890384 Z M107.67596,7.42577876 C108.247131,7.37676125 108.779325,7.60303129 108.864648,7.93116705 C108.94997,8.2593028 108.556112,8.56504593 107.984941,8.61406344 C106.616235,8.7315248 105.252508,8.86198977 103.894171,9.00537301 C103.326171,9.06532999 102.781111,8.84940481 102.676746,8.52309062 C102.572382,8.19677643 102.948233,7.88364178 103.516234,7.8236848 C104.897483,7.67788301 106.284198,7.54521876 107.67596,7.42577876 Z M120.267434,6.71186199 C120.844259,6.69571697 121.33465,6.95126836 121.362752,7.28265202 C121.390855,7.61403568 120.946028,7.89576334 120.369204,7.91190837 C118.985813,7.95062876 117.605831,8.00239696 116.22963,8.06714996 C115.654049,8.09423223 115.149232,7.84812613 115.102092,7.5174566 C115.054951,7.18678707 115.483336,6.89677193 116.058918,6.86968965 C117.458069,6.80385678 118.861035,6.75122637 120.267434,6.71186199 Z" id="椭圆形" fill="url(#linearGradient-2)"></path>
                            <g id="蒙版" transform="translate(9.411052, 0.000000)" fill="url(#linearGradient-3)">
                                <ellipse id="path-2" cx="117.115316" cy="67.2823072" rx="117.115316" ry="67.2823072"></ellipse>
                            </g>
                        </g>
                        <g id="形状结合" fill-rule="nonzero">
                            <use fill="black" fill-opacity="1" filter="url(#filter-6)" xlink:href="#path-5"></use>
                            <use fill="url(#linearGradient-4)" xlink:href="#path-5"></use>
                        </g>
                        <path d="M217,72 L233,72 L231.783307,80.8970681 C231.453554,83.3083894 230.268418,85 228.908811,85 L221.091189,85 C219.731582,85 218.546446,83.3083894 218.216693,80.8970681 L217,72 L217,72 Z" id="矩形" fill="url(#linearGradient-7)" fill-rule="nonzero" opacity="0.5" transform="translate(225.000000, 78.500000) rotate(-90.000000) translate(-225.000000, -78.500000) "></path>
                        <path d="M60.3651515,72.15 L76.4950217,72.15 L75.268453,80.7439807 C74.936023,83.073158 73.7412682,84.7071422 72.3706246,84.7071422 L64.4895486,84.7071422 C63.118905,84.7071422 61.9241502,83.073158 61.5917204,80.7439807 L60.3651515,72.15 L60.3651515,72.15 Z" id="矩形备份-37" fill="url(#linearGradient-8)" fill-rule="nonzero" opacity="0.5" transform="translate(68.430087, 78.428571) scale(-1, 1) rotate(-90.000000) translate(-68.430087, -78.428571) "></path>
                        <g id="path-8" transform="translate(70.000000, 34.000000)">
                            <use fill="url(#linearGradient-9)" fill-rule="evenodd" xlink:href="#path-10"></use>
                            <use fill="black" fill-opacity="1" filter="url(#filter-11)" xlink:href="#path-10"></use>
                        </g>
                        <path d="M120.32665,100.943213 C127.797769,103.961241 136.737958,105.608696 146.121945,105.608696 C155.488043,105.608696 164.412181,103.96754 171.875151,100.960194 C172.826361,100.576886 174.147163,100.702048 174.825244,101.239751 C175.503325,101.777453 175.281911,102.52408 174.330701,102.907388 C166.156676,106.201268 156.375681,108 146.121945,108 C135.848614,108 126.050031,106.194364 117.867104,102.888795 C116.916682,102.504863 116.696801,101.758092 117.375986,101.220834 C118.05517,100.683576 119.376228,100.559281 120.32665,100.943213 Z M146.121945,42 C157.182202,42 167.683012,44.0939598 176.193237,47.8816802 C177.111049,48.2901789 177.269264,49.0419225 176.54662,49.5607465 C175.823975,50.0795705 174.494122,50.1690067 173.57631,49.760508 C165.805467,46.3018705 156.224341,44.3913043 146.121945,44.3913043 C136.335436,44.3913043 127.035238,46.1837448 119.389495,49.4458977 C118.457111,49.8437113 117.130768,49.7389352 116.427026,49.2118737 C115.723284,48.6848123 115.908635,47.9350529 116.84102,47.5372392 C125.214658,43.9645204 135.407705,42 146.121945,42 Z" id="形状" fill="url(#linearGradient-12)" fill-rule="nonzero"></path>
                    </g>
                </g>
            </g>
        </g>
    </g>
</svg>